{
  "accessors": [
    {
      "bufferView": 2,
      "componentType": 5126,
      "count": 3805,
      "max": [
        0.43960088491439819,
        0.021893499419093132,
        0.4420965313911438
      ],
      "min": [
        -0.44174930453300476,
        -0.1720559298992157,
        -0.44140800833702087
      ],
      "type": "VEC3"
    },
    {
      "bufferView": 2,
      "byteOffset": 45660,
      "componentType": 5126,
      "count": 3805,
      "max": [
        0.99999994039535522,
        0.9999992847442627,
        0.99996376037597656
      ],
      "min": [
        -0.99998962879180908,
        -0.99993973970413208,
        -0.99977493286132812
      ],
      "type": "VEC3"
    },
    {
      "bufferView": 3,
      "componentType": 5126,
      "count": 3805,
      "max": [
        0.99999970197677612,
        0.99999696016311646,
        0.9999995231628418,
        1
      ],
      "min": [
        -0.99999713897705078,
        -0.99992877244949341,
        -1,
        1
      ],
      "type": "VEC4"
    },
    {
      "bufferView": 1,
      "componentType": 5126,
      "count": 3805,
      "max": [
        0.99653047323226929,
        0.99736768007278442
      ],
      "min": [
        0.0026298165321350098,
        0.0026314565911889076
      ],
      "type": "VEC2"
    },
    {
      "bufferView": 0,
      "componentType": 5125,
      "count": 14910,
      "max": [
        3804
      ],
      "min": [
        0
      ],
      "type": "SCALAR"
    }
  ],
  "asset": {
    "extras": {
      "author": "Artem Mykhailov (https://sketchfab.com/CGArtem)",
      "license": "CC-BY-4.0 (http://creativecommons.org/licenses/by/4.0/)",
      "source": "https://sketchfab.com/3d-models/medieval-shield-b98b8f64d935415aab0fe9b70074511f",
      "title": "Medieval Shield"
    },
    "generator": "Sketchfab-9.84.0",
    "version": "2.0"
  },
  "bufferViews": [
    {
      "buffer": 0,
      "byteLength": 59640,
      "byteOffset": 0,
      "name": "floatBufferViews",
      "target": 34963
    },
    {
      "buffer": 0,
      "byteLength": 30440,
      "byteOffset": 59640,
      "byteStride": 8,
      "name": "floatBufferViews",
      "target": 34962
    },
    {
      "buffer": 0,
      "byteLength": 91320,
      "byteOffset": 90080,
      "byteStride": 12,
      "name": "floatBufferViews",
      "target": 34962
    },
    {
      "buffer": 0,
      "byteLength": 60880,
      "byteOffset": 181400,
      "byteStride": 16,
      "name": "floatBufferViews",
      "target": 34962
    }
  ],
  "buffers": [
    {
      "byteLength": 242280,
      "uri": "scene.bin"
    }
  ],
  "images": [
    {
      "uri": "textures/M_Medieval_Shield_baseColor.png"
    },
    {
      "uri": "textures/M_Medieval_Shield_metallicRoughness.png"
    },
    {
      "uri": "textures/M_Medieval_Shield_normal.png"
    }
  ],
  "materials": [
    {
      "doubleSided": true,
      "name": "M_Medieval_Shield",
      "normalTexture": {
        "index": 2,
        "scale": 1,
        "texCoord": 0
      },
      "occlusionTexture": {
        "index": 1,
        "strength": 1,
        "texCoord": 0
      },
      "pbrMetallicRoughness": {
        "baseColorFactor": [
          1,
          1,
          1,
          1
        ],
        "baseColorTexture": {
          "index": 0,
          "texCoord": 0
        },
        "metallicFactor": 1,
        "metallicRoughnessTexture": {
          "index": 1,
          "texCoord": 0
        },
        "roughnessFactor": 1
      }
    }
  ],
  "meshes": [
    {
      "name": "SM_Medieval_Shield_M_Medieval_Shield_0",
      "primitives": [
        {
          "attributes": {
            "NORMAL": 1,
            "POSITION": 0,
            "TANGENT": 2,
            "TEXCOORD_0": 3
          },
          "indices": 4,
          "material": 0,
          "mode": 4
        }
      ]
    }
  ],
  "nodes": [
    {
      "children": [
        1
      ],
      "name": "RootNode (gltf orientation matrix)",
      "rotation": [
        -0.70710678118654746,
        -0,
        -0,
        0.70710678118654757
      ]
    },
    {
      "children": [
        2
      ],
      "matrix": [
        0.011511757969856262,
        3.8537640138495834e-19,
        5.339031126353134e-19,
        0,
        -8.7303140231977058e-20,
        0.010145067711743394,
        -0.005440420257158074,
        0,
        -6.5264508848202904e-19,
        0.005440420257158074,
        0.010145067711743394,
        0,
        -5.5511151231257827e-17,
        -0.90762490034103394,
        -3.544238805770874,
        1
      ],
      "name": "RootNode (model correction matrix)"
    },
    {
      "children": [
        3
      ],
      "matrix": [
        1,
        0,
        0,
        0,
        0,
        0,
        1,
        0,
        0,
        -1,
        0,
        0,
        0,
        0,
        0,
        1
      ],
      "name": "f288ee92d3e94e439be102c493c23bd0.fbx"
    },
    {
      "children": [
        4
      ],
      "name": "RootNode"
    },
    {
      "children": [
        5
      ],
      "matrix": [
        100,
        0,
        0,
        0,
        0,
        -1.6292067939183141e-05,
        -99.999999999998678,
        0,
        0,
        99.999999999998678,
        -1.6292067939183141e-05,
        0,
        0,
        0,
        0,
        1
      ],
      "name": "SM_Medieval_Shield"
    },
    {
      "mesh": 0,
      "name": "SM_Medieval_Shield_M_Medieval_Shield_0"
    }
  ],
  "samplers": [
    {
      "magFilter": 9729,
      "minFilter": 9987,
      "wrapS": 10497,
      "wrapT": 10497
    }
  ],
  "scene": 0,
  "scenes": [
    {
      "name": "OSG_Scene",
      "nodes": [
        0
      ]
    }
  ],
  "textures": [
    {
      "sampler": 0,
      "source": 0
    },
    {
      "sampler": 0,
      "source": 1
    },
    {
      "sampler": 0,
      "source": 2
    }
  ]
}

