{
  "accessors": [
    {
      "bufferView": 2,
      "componentType": 5126,
      "count": 1097,
      "max": [
        0.049999799579381943,
        1,
        0.049999799579381943
      ],
      "min": [
        -0.049999799579381943,
        0.39725100994110107,
        -0.049999698996543884
      ],
      "type": "VEC3"
    },
    {
      "bufferView": 2,
      "byteOffset": 13164,
      "componentType": 5126,
      "count": 1097,
      "max": [
        1,
        0.99658876657485962,
        1
      ],
      "min": [
        -1,
        -1,
        -1
      ],
      "type": "VEC3"
    },
    {
      "bufferView": 3,
      "componentType": 5126,
      "count": 1097,
      "max": [
        0.99998271465301514,
        0.6575237512588501,
        0.9999995231628418,
        1
      ],
      "min": [
        -0.99998438358306885,
        -0.82355314493179321,
        -0.99999970197677612,
        1
      ],
      "type": "VEC4"
    },
    {
      "bufferView": 1,
      "componentType": 5126,
      "count": 1097,
      "max": [
        0.90567702054977417,
        0.982371985912323
      ],
      "min": [
        0.43103000521659851,
        0.048568800091743469
      ],
      "type": "VEC2"
    },
    {
      "bufferView": 0,
      "componentType": 5125,
      "count": 4692,
      "max": [
        1096
      ],
      "min": [
        0
      ],
      "type": "SCALAR"
    },
    {
      "bufferView": 2,
      "byteOffset": 26328,
      "componentType": 5126,
      "count": 2514,
      "max": [
        0.18955999612808228,
        0.91036397218704224,
        0.16547100245952606
      ],
      "min": [
        -0.18955999612808228,
        0.46354100108146667,
        -0.16547100245952606
      ],
      "type": "VEC3"
    },
    {
      "bufferView": 2,
      "byteOffset": 56496,
      "componentType": 5126,
      "count": 2514,
      "max": [
        1,
        0.98093348741531372,
        0.9936060905456543
      ],
      "min": [
        -1,
        -1,
        -0.9936060905456543
      ],
      "type": "VEC3"
    },
    {
      "bufferView": 3,
      "byteOffset": 17552,
      "componentType": 5126,
      "count": 2514,
      "max": [
        0.99965482950210571,
        0.99030160903930664,
        0.99958920478820801,
        1
      ],
      "min": [
        -0.99997615814208984,
        -0.98531246185302734,
        -0.99969685077667236,
        1
      ],
      "type": "VEC4"
    },
    {
      "bufferView": 1,
      "byteOffset": 8776,
      "componentType": 5126,
      "count": 2514,
      "max": [
        0.5895569920539856,
        0.97647500038146973
      ],
      "min": [
        0.046499300748109818,
        0.070633396506309509
      ],
      "type": "VEC2"
    },
    {
      "bufferView": 0,
      "byteOffset": 18768,
      "componentType": 5125,
      "count": 9288,
      "max": [
        2513
      ],
      "min": [
        0
      ],
      "type": "SCALAR"
    },
    {
      "bufferView": 2,
      "byteOffset": 86664,
      "componentType": 5126,
      "count": 373,
      "max": [
        0.054687101393938065,
        -0.16963399946689606,
        0.054687298834323883
      ],
      "min": [
        -0.054687101393938065,
        -0.20638500154018402,
        -0.054687000811100006
      ],
      "type": "VEC3"
    },
    {
      "bufferView": 2,
      "byteOffset": 91140,
      "componentType": 5126,
      "count": 373,
      "max": [
        1,
        0.99327123165130615,
        1
      ],
      "min": [
        -1,
        -0.9939616322517395,
        -1
      ],
      "type": "VEC3"
    },
    {
      "bufferView": 3,
      "byteOffset": 57776,
      "componentType": 5126,
      "count": 373,
      "max": [
        0.99185305833816528,
        0.80656969547271729,
        0.99905532598495483,
        1
      ],
      "min": [
        -0.78734278678894043,
        -1,
        -0.95583581924438477,
        1
      ],
      "type": "VEC4"
    },
    {
      "bufferView": 1,
      "byteOffset": 28888,
      "componentType": 5126,
      "count": 373,
      "max": [
        0.65820097923278809,
        0.99183797836303711
      ],
      "min": [
        0.50123602151870728,
        0.76577800512313843
      ],
      "type": "VEC2"
    },
    {
      "bufferView": 0,
      "byteOffset": 55920,
      "componentType": 5125,
      "count": 1620,
      "max": [
        372
      ],
      "min": [
        0
      ],
      "type": "SCALAR"
    },
    {
      "bufferView": 2,
      "byteOffset": 95616,
      "componentType": 5126,
      "count": 224,
      "max": [
        0.038254298269748688,
        0.39759299159049988,
        0.038254499435424805
      ],
      "min": [
        -0.038254298269748688,
        -0.16988000273704529,
        -0.038254298269748688
      ],
      "type": "VEC3"
    },
    {
      "bufferView": 2,
      "byteOffset": 98304,
      "componentType": 5126,
      "count": 224,
      "max": [
        1,
        0.9830823540687561,
        1
      ],
      "min": [
        -1,
        -0.98308855295181274,
        -1
      ],
      "type": "VEC3"
    },
    {
      "bufferView": 3,
      "byteOffset": 63744,
      "componentType": 5126,
      "count": 224,
      "max": [
        1,
        0.96955972909927368,
        1,
        1
      ],
      "min": [
        -1,
        -0.96849155426025391,
        -1,
        1
      ],
      "type": "VEC4"
    },
    {
      "bufferView": 1,
      "byteOffset": 31872,
      "componentType": 5126,
      "count": 224,
      "max": [
        0.98667198419570923,
        0.97684401273727417
      ],
      "min": [
        0.49066001176834106,
        0.5184289813041687
      ],
      "type": "VEC2"
    },
    {
      "bufferView": 0,
      "byteOffset": 62400,
      "componentType": 5125,
      "count": 756,
      "max": [
        223
      ],
      "min": [
        0
      ],
      "type": "SCALAR"
    },
    {
      "bufferView": 2,
      "byteOffset": 100992,
      "componentType": 5126,
      "count": 206,
      "max": [
        0.040599200874567032,
        -0.20532700419425964,
        0.040599498897790909
      ],
      "min": [
        -0.040599200874567032,
        -1,
        -0.040599100291728973
      ],
      "type": "VEC3"
    },
    {
      "bufferView": 2,
      "byteOffset": 103464,
      "componentType": 5126,
      "count": 206,
      "max": [
        0.99954324960708618,
        0.20601803064346313,
        0.99954324960708618
      ],
      "min": [
        -0.99954313039779663,
        -0.99248647689819336,
        -0.99954324960708618
      ],
      "type": "VEC3"
    },
    {
      "bufferView": 3,
      "byteOffset": 67328,
      "componentType": 5126,
      "count": 206,
      "max": [
        0.99977326393127441,
        0.83674037456512451,
        0.99999439716339111,
        1
      ],
      "min": [
        -0.99999994039535522,
        -0.83841449022293091,
        -0.99998962879180908,
        1
      ],
      "type": "VEC4"
    },
    {
      "bufferView": 1,
      "byteOffset": 33664,
      "componentType": 5126,
      "count": 206,
      "max": [
        0.98214799165725708,
        0.98304802179336548
      ],
      "min": [
        0.41440001130104065,
        0.014389099553227425
      ],
      "type": "VEC2"
    },
    {
      "bufferView": 0,
      "byteOffset": 65424,
      "componentType": 5125,
      "count": 906,
      "max": [
        205
      ],
      "min": [
        0
      ],
      "type": "SCALAR"
    }
  ],
  "asset": {
    "extras": {
      "author": "Psychloor (https://sketchfab.com/blomqvistkevin)",
      "license": "CC-BY-SA-4.0 (http://creativecommons.org/licenses/by-sa/4.0/)",
      "source": "https://sketchfab.com/models/01d397417f614dd2aa5b5d30160f13fb",
      "title": "Wooden Medieval Mace"
    },
    "generator": "Sketchfab-3.42.7",
    "version": "2.0"
  },
  "bufferViews": [
    {
      "buffer": 0,
      "byteLength": 69048,
      "byteOffset": 0,
      "name": "floatBufferViews",
      "target": 34963
    },
    {
      "buffer": 0,
      "byteLength": 35312,
      "byteOffset": 69048,
      "byteStride": 8,
      "name": "floatBufferViews",
      "target": 34962
    },
    {
      "buffer": 0,
      "byteLength": 105936,
      "byteOffset": 104360,
      "byteStride": 12,
      "name": "floatBufferViews",
      "target": 34962
    },
    {
      "buffer": 0,
      "byteLength": 70624,
      "byteOffset": 210296,
      "byteStride": 16,
      "name": "floatBufferViews",
      "target": 34962
    }
  ],
  "buffers": [
    {
      "byteLength": 280920,
      "uri": "scene.bin"
    }
  ],
  "images": [
    {
      "uri": "textures/1001_metallicRoughness.png"
    },
    {
      "uri": "textures/1001_normal.png"
    },
    {
      "uri": "textures/1001_baseColor.jpeg"
    }
  ],
  "materials": [
    {
      "doubleSided": true,
      "name": "1001",
      "normalTexture": {
        "index": 1,
        "scale": 1,
        "texCoord": 0
      },
      "occlusionTexture": {
        "index": 0,
        "strength": 1,
        "texCoord": 0
      },
      "pbrMetallicRoughness": {
        "baseColorFactor": [
          1,
          1,
          1,
          1
        ],
        "baseColorTexture": {
          "index": 2,
          "texCoord": 0
        },
        "metallicFactor": 1,
        "metallicRoughnessTexture": {
          "index": 0,
          "texCoord": 0
        },
        "roughnessFactor": 1
      }
    }
  ],
  "meshes": [
    {
      "name": "defaultMaterial",
      "primitives": [
        {
          "attributes": {
            "NORMAL": 1,
            "POSITION": 0,
            "TANGENT": 2,
            "TEXCOORD_0": 3
          },
          "indices": 4,
          "material": 0,
          "mode": 4
        }
      ]
    },
    {
      "name": "defaultMaterial",
      "primitives": [
        {
          "attributes": {
            "NORMAL": 6,
            "POSITION": 5,
            "TANGENT": 7,
            "TEXCOORD_0": 8
          },
          "indices": 9,
          "material": 0,
          "mode": 4
        }
      ]
    },
    {
      "name": "defaultMaterial",
      "primitives": [
        {
          "attributes": {
            "NORMAL": 11,
            "POSITION": 10,
            "TANGENT": 12,
            "TEXCOORD_0": 13
          },
          "indices": 14,
          "material": 0,
          "mode": 4
        }
      ]
    },
    {
      "name": "defaultMaterial",
      "primitives": [
        {
          "attributes": {
            "NORMAL": 16,
            "POSITION": 15,
            "TANGENT": 17,
            "TEXCOORD_0": 18
          },
          "indices": 19,
          "material": 0,
          "mode": 4
        }
      ]
    },
    {
      "name": "defaultMaterial",
      "primitives": [
        {
          "attributes": {
            "NORMAL": 21,
            "POSITION": 20,
            "TANGENT": 22,
            "TEXCOORD_0": 23
          },
          "indices": 24,
          "material": 0,
          "mode": 4
        }
      ]
    }
  ],
  "nodes": [
    {
      "children": [
        1
      ],
      "name": "RootNode (gltf orientation matrix)",
      "rotation": [
        -0.70710678118654746,
        -0,
        -0,
        0.70710678118654757
      ]
    },
    {
      "children": [
        2
      ],
      "name": "RootNode (model correction matrix)"
    },
    {
      "children": [
        3,
        5,
        7,
        9,
        11
      ],
      "matrix": [
        1,
        0,
        0,
        0,
        0,
        -4.3711390063094768e-08,
        0.999999999999999,
        0,
        0,
        -0.999999999999999,
        -4.3711390063094768e-08,
        0,
        0,
        0,
        0,
        1
      ],
      "name": "Collada visual scene group"
    },
    {
      "children": [
        4
      ],
      "name": "Head_low"
    },
    {
      "mesh": 0,
      "name": "defaultMaterial"
    },
    {
      "children": [
        6
      ],
      "name": "Blade_low"
    },
    {
      "mesh": 1,
      "name": "defaultMaterial"
    },
    {
      "children": [
        8
      ],
      "name": "HandleRing_low"
    },
    {
      "mesh": 2,
      "name": "defaultMaterial"
    },
    {
      "children": [
        10
      ],
      "name": "Shaft_low"
    },
    {
      "mesh": 3,
      "name": "defaultMaterial"
    },
    {
      "children": [
        12
      ],
      "name": "Handle_low"
    },
    {
      "mesh": 4,
      "name": "defaultMaterial"
    }
  ],
  "samplers": [
    {
      "magFilter": 9729,
      "minFilter": 9987,
      "wrapS": 10497,
      "wrapT": 10497
    }
  ],
  "scene": 0,
  "scenes": [
    {
      "name": "OSG_Scene",
      "nodes": [
        0
      ]
    }
  ],
  "textures": [
    {
      "sampler": 0,
      "source": 0
    },
    {
      "sampler": 0,
      "source": 1
    },
    {
      "sampler": 0,
      "source": 2
    }
  ]
}

